<?xml version="1.0" standalone="no"?>
<!DOCTYPE svg PUBLIC "-//W3C//DTD SVG 20010904//EN"
 "http://www.w3.org/TR/2001/REC-SVG-20010904/DTD/svg10.dtd">
<svg version="1.0" xmlns="http://www.w3.org/2000/svg"
 width="1964.000000pt" height="603.000000pt" viewBox="0 0 1964.000000 603.000000"
 preserveAspectRatio="xMidYMid meet">

<g transform="translate(0.000000,603.000000) scale(0.100000,-0.100000)"
fill="#000000" stroke="none">
<path d="M2748 5348 c-95 -99 -237 -248 -315 -330 -79 -81 -145 -158 -147
-171 -13 -62 -16 -175 -10 -347 l7 -191 307 306 c169 168 313 305 320 305 15
0 34 -18 363 -335 153 -148 282 -271 286 -273 7 -2 4 402 -5 496 -5 60 -9 68
-63 130 -32 37 -121 127 -197 201 -161 155 -272 276 -316 344 -17 26 -37 47
-44 47 -7 0 -90 -82 -186 -182z"/>
<path d="M4178 4541 c-40 -56 -788 -811 -803 -811 -13 0 -160 182 -182 225 -6
11 -19 58 -28 105 l-18 85 -86 86 c-79 78 -271 239 -286 239 -4 0 -5 -136 -3
-302 l3 -303 27 -57 c15 -32 41 -79 59 -105 36 -53 901 -928 1178 -1190 198
-189 241 -215 378 -232 134 -17 255 10 365 81 55 35 276 250 587 571 l65 66
-547 550 c-301 303 -547 556 -547 563 0 8 36 49 80 93 44 44 80 85 80 91 0 10
-281 284 -291 284 -2 0 -16 -18 -31 -39z m357 -1233 c137 -136 267 -260 287
-275 21 -15 37 -31 38 -34 0 -4 -28 -33 -62 -66 -203 -193 -301 -283 -309
-283 -32 0 -799 756 -807 795 -2 9 71 91 169 190 l173 176 130 -128 c72 -70
243 -239 381 -375z"/>
<path d="M18090 4414 c-125 -24 -246 -90 -345 -189 -68 -67 -89 -97 -133 -185
-48 -95 -53 -114 -63 -208 -27 -253 33 -435 196 -597 139 -139 281 -195 494
-195 71 0 140 6 176 15 86 22 211 86 273 140 104 93 194 233 217 342 19 88 19
297 0 387 -20 92 -91 212 -180 302 -84 85 -133 117 -240 157 -74 28 -91 31
-225 33 -80 1 -156 0 -170 -2z m294 -150 c168 -41 321 -181 376 -345 46 -139
34 -315 -31 -448 -105 -214 -401 -350 -619 -285 -78 23 -194 82 -240 122 -54
45 -125 147 -158 224 -24 57 -27 75 -27 193 0 154 13 200 86 309 63 95 124
150 212 192 127 60 260 73 401 38z"/>
<path d="M18123 4106 c-88 -29 -167 -89 -222 -171 -42 -61 -51 -99 -51 -209 0
-90 3 -107 28 -161 74 -156 265 -259 420 -227 129 27 233 104 288 213 18 38
34 73 34 79 0 6 -36 10 -92 10 -92 0 -93 0 -109 -29 -38 -65 -159 -105 -247
-81 -57 15 -125 78 -140 128 -34 114 7 210 112 264 32 16 53 19 106 16 73 -6
104 -21 162 -82 l37 -38 80 3 c44 2 83 8 87 12 14 14 -49 120 -103 173 -77 77
-147 107 -258 111 -57 2 -105 -2 -132 -11z"/>
<path d="M6620 3015 c0 -1301 0 -1335 19 -1335 10 0 33 -3 50 -6 l31 -6 0 904
c0 498 -3 1101 -7 1341 l-6 437 -43 0 -44 0 0 -1335z"/>
<path d="M8002 3093 l3 -808 193 -3 192 -2 0 192 c0 106 3 217 6 246 l7 52
213 0 c333 0 407 17 488 112 78 90 79 99 84 418 4 248 2 294 -12 344 -22 73
-53 123 -106 169 -96 82 -127 86 -673 86 l-397 1 2 -807z m795 435 c8 -13 7
-377 -1 -385 -6 -7 -387 -6 -393 0 -7 7 -4 377 3 388 9 15 381 11 391 -3z"/>
<path d="M10884 3889 c-11 -19 -15 -625 -7 -1114 l8 -470 80 -8 c44 -4 277
-10 518 -13 l437 -5 1 148 c1 81 2 164 2 183 l2 35 -321 3 -322 2 -6 31 c-3
17 -6 299 -6 625 l0 594 -189 0 c-126 0 -192 -4 -197 -11z"/>
<path d="M1365 3693 c-73 -18 -148 -50 -195 -86 -55 -41 -640 -615 -640 -628
0 -3 37 -42 83 -85 45 -44 123 -120 172 -169 85 -85 509 -488 711 -675 50 -47
92 -88 93 -92 0 -4 -22 -29 -50 -55 -58 -54 -179 -196 -179 -210 0 -10 260
-273 270 -273 3 0 72 69 153 153 80 85 351 355 601 601 l456 448 277 -268
c153 -148 431 -421 617 -606 l340 -337 36 31 c19 17 70 63 113 102 43 39 94
81 113 95 19 13 34 27 34 30 0 9 -315 329 -400 407 -41 38 -331 322 -645 631
-313 310 -572 563 -576 563 -4 0 -56 -45 -116 -101 -59 -55 -126 -114 -150
-132 -23 -18 -43 -37 -43 -43 0 -6 25 -31 55 -54 30 -23 55 -48 55 -55 0 -11
-181 -181 -405 -382 -49 -45 -126 -118 -170 -162 -44 -45 -85 -81 -91 -81 -14
0 -377 345 -604 574 l-154 155 29 32 c53 56 287 269 296 269 5 0 10 -105 11
-233 l3 -234 270 264 270 264 -103 100 c-115 111 -257 211 -335 234 -48 14
-158 18 -202 8z"/>
<path d="M9393 3503 c-29 -11 -7 -122 79 -398 30 -96 124 -403 220 -716 32
-109 33 -109 144 -109 37 0 54 -4 54 -13 0 -7 -25 -90 -55 -185 -30 -95 -55
-188 -55 -206 0 -31 3 -34 38 -40 20 -3 99 -6 175 -6 133 0 138 1 147 23 6 12
44 137 84 277 41 140 128 433 194 650 223 734 214 695 172 717 -17 9 -72 13
-177 13 l-152 0 -9 -32 c-224 -795 -243 -858 -257 -858 -7 0 -17 17 -23 38 -5
20 -39 141 -76 267 -36 127 -87 309 -113 405 l-48 175 -165 2 c-91 1 -171 -1
-177 -4z"/>
<path d="M12390 3496 c-110 -32 -164 -75 -205 -168 -25 -55 -29 -82 -37 -213
-6 -82 -7 -240 -4 -351 6 -222 16 -268 80 -361 66 -97 183 -123 544 -123 l229
0 63 42 c119 80 120 82 120 191 0 77 -3 96 -16 101 -9 3 -155 6 -325 6 l-309
0 0 68 0 69 167 6 c91 4 249 7 351 7 l184 0 -4 228 c-5 249 -13 291 -77 379
-31 43 -115 103 -170 121 -49 17 -531 15 -591 -2z m446 -341 c3 -13 7 -39 7
-57 l2 -33 -160 0 c-179 0 -176 -2 -155 74 l11 41 144 0 145 0 6 -25z"/>
<path d="M13787 3496 c-39 -14 -85 -46 -128 -90 -23 -23 -27 -37 -33 -116 -4
-50 -4 -95 -1 -100 4 -6 107 -10 260 -10 286 0 265 7 265 -85 l0 -54 -207 -3
c-180 -3 -213 -6 -243 -22 -70 -37 -140 -97 -167 -144 -27 -45 -28 -54 -31
-198 -4 -145 -3 -153 21 -200 46 -89 113 -142 212 -170 49 -13 128 -17 429
-21 l368 -5 -5 483 c-4 469 -5 486 -27 547 -24 68 -83 137 -142 165 -56 27
-154 37 -348 36 -128 0 -196 -4 -223 -13z m359 -771 c4 -8 3 -35 0 -60 l-7
-45 -112 0 c-154 0 -157 1 -157 59 0 26 3 51 7 54 3 4 64 7 135 7 106 0 130
-3 134 -15z"/>
<path d="M15064 3495 c-78 -17 -109 -33 -158 -83 -36 -37 -39 -46 -47 -119
-10 -97 -11 -387 -2 -741 l6 -272 182 0 182 0 7 393 c5 215 11 417 15 447 l6
55 183 3 182 2 0 105 0 105 -52 41 c-92 73 -113 79 -288 78 -90 0 -181 -6
-216 -14z"/>
<path d="M15860 2902 l0 -609 38 -7 c35 -5 330 -9 334 -3 1 1 4 202 7 447 l6
445 153 3 152 3 0 -224 c0 -123 3 -326 7 -450 l6 -227 61 0 c34 0 118 3 189 7
l127 6 0 426 c0 234 -5 458 -10 496 -19 128 -82 218 -190 269 -43 20 -61 21
-462 24 l-418 3 0 -609z"/>
<path d="M3005 1723 c-232 -225 -361 -343 -373 -343 -6 0 -81 69 -167 153
-157 152 -182 173 -192 164 -2 -3 0 -96 6 -207 6 -110 11 -238 11 -282 l0 -81
213 -211 c253 -252 413 -398 431 -394 6 2 36 30 65 63 30 33 160 168 290 299
l236 239 -145 -7 c-119 -5 -358 -9 -419 -7 -8 1 33 50 92 109 94 97 106 114
112 153 3 24 5 148 3 275 l-3 232 -160 -155z"/>
</g>
</svg>
