<?xml version="1.0" standalone="no"?>
<!DOCTYPE svg PUBLIC "-//W3C//DTD SVG 20010904//EN"
 "http://www.w3.org/TR/2001/REC-SVG-20010904/DTD/svg10.dtd">
<svg version="1.0" xmlns="http://www.w3.org/2000/svg"
 width="1932.000000pt" height="628.000000pt" viewBox="0 0 1932.000000 628.000000"
 preserveAspectRatio="xMidYMid meet">

<g transform="translate(0.000000,628.000000) scale(0.100000,-0.100000)"
fill="#000000" stroke="none">
<path d="M3223 5906 c-4 -8 -136 -146 -293 -307 -352 -363 -383 -396 -404
-436 -14 -27 -16 -74 -16 -325 l0 -293 349 349 c191 192 351 349 354 350 3 0
166 -158 362 -352 l356 -352 -3 302 c-3 300 -3 303 -27 343 -14 22 -147 164
-297 315 -250 253 -354 372 -354 407 0 17 -17 17 -27 -1z"/>
<path d="M4608 4814 c-28 -37 -428 -453 -720 -749 -159 -161 -168 -169 -182
-150 -7 11 -46 58 -85 105 -88 104 -116 161 -135 270 -17 97 12 62 -266 317
-126 116 -156 139 -164 126 -4 -8 -6 -154 -4 -327 7 -482 -31 -415 610 -1051
1021 -1012 1004 -997 1146 -1036 158 -44 356 -5 491 99 56 42 226 209 468 459
l227 234 -615 615 c-578 579 -613 616 -594 629 44 31 186 177 183 188 -2 7
-66 71 -143 141 -77 71 -147 137 -157 147 -22 26 -29 24 -60 -17z m337 -1305
c225 -222 384 -374 424 -406 3 -2 -22 -27 -55 -56 -32 -28 -124 -114 -203
-189 -80 -76 -149 -138 -155 -138 -29 0 -401 354 -722 688 l-186 193 84 87
c47 48 134 139 194 202 l109 116 115 -111 c63 -60 241 -234 395 -386z"/>
<path d="M7350 4600 l-45 -5 -3 -1471 -2 -1472 22 -6 c13 -3 39 -6 58 -6 l35
0 -3 1477 c-1 813 -6 1480 -10 1483 -4 3 -27 3 -52 0z"/>
<path d="M8822 3208 l3 -893 215 0 215 0 3 268 2 267 264 0 c308 0 380 12 468
77 54 39 108 114 128 178 17 54 26 599 11 679 -15 82 -47 142 -112 208 -45 46
-68 60 -125 79 -68 23 -78 23 -572 27 l-502 3 2 -893z m851 486 l37 -7 0 -212
c0 -185 -2 -214 -16 -219 -21 -8 -348 -8 -396 0 l-38 7 0 212 c0 116 3 215 7
218 8 9 355 9 406 1z"/>
<path d="M11996 4001 c-4 -55 -4 -450 -1 -878 4 -428 6 -786 6 -796 -1 -16 31
-17 572 -15 l572 3 3 200 2 200 -357 0 -358 0 -3 693 -2 692 -214 0 -213 0 -7
-99z"/>
<path d="M1495 3869 c-33 -5 -93 -25 -135 -45 -70 -34 -100 -61 -430 -391
l-355 -354 91 -87 c50 -48 214 -204 365 -347 151 -142 351 -334 444 -425 94
-91 196 -189 228 -218 l57 -53 -44 -42 c-24 -23 -85 -88 -135 -143 l-92 -102
129 -128 c71 -71 138 -141 149 -156 l20 -27 669 669 c368 369 673 670 679 669
5 0 313 -301 684 -668 l675 -668 120 106 c67 58 142 123 167 144 l47 37 -382
378 c-344 342 -818 808 -1252 1235 l-161 158 -79 -74 c-95 -90 -235 -211 -260
-226 -18 -10 -16 -13 16 -40 19 -17 52 -40 72 -53 21 -13 38 -28 38 -34 0 -11
-158 -162 -385 -369 -71 -65 -182 -166 -246 -226 l-115 -108 -215 206 c-291
280 -620 606 -617 613 5 10 268 258 313 295 25 21 49 35 53 31 4 -4 7 -127 7
-272 0 -145 2 -264 5 -264 3 0 14 16 24 35 11 19 51 65 90 101 39 37 163 157
275 267 l205 201 -145 138 c-124 119 -156 144 -234 183 -122 61 -201 74 -340
54z"/>
<path d="M16775 3669 c-198 -8 -267 -31 -342 -112 -31 -33 -43 -56 -48 -88 -3
-24 -5 -294 -3 -599 l3 -555 208 -3 c162 -2 207 0 207 10 -4 184 7 969 13 975
5 4 99 9 210 10 l202 3 3 106 3 106 -42 39 c-23 21 -65 54 -93 73 -60 42 -90
45 -321 35z"/>
<path d="M10356 3663 c-34 -9 -30 -29 141 -598 42 -137 81 -270 88 -295 8 -25
22 -74 33 -110 11 -36 38 -125 60 -198 22 -74 43 -137 47 -140 4 -4 47 -7 96
-7 73 0 89 -3 89 -15 0 -9 -29 -104 -65 -212 -70 -212 -77 -251 -46 -268 12
-6 94 -10 199 -10 l179 0 55 188 c185 622 334 1118 379 1262 28 91 62 203 75
250 46 162 48 160 -190 160 l-183 0 -32 -117 c-18 -65 -41 -147 -51 -183 -11
-36 -51 -180 -90 -320 -39 -140 -78 -278 -86 -307 -13 -47 -29 -72 -39 -61 -4
4 -201 693 -257 898 l-23 85 -180 1 c-99 1 -188 0 -199 -3z"/>
<path d="M13675 3656 c-146 -36 -229 -120 -266 -266 -20 -79 -20 -711 0 -790
26 -105 88 -193 163 -231 83 -42 150 -51 445 -56 156 -3 298 -2 317 1 20 4 66
33 115 72 l81 65 0 99 c0 54 3 105 6 114 5 14 -32 16 -357 18 l-364 3 0 80 0
80 388 3 387 2 0 228 c0 166 -4 244 -15 290 -35 146 -102 231 -218 273 -58 22
-79 23 -347 25 -203 2 -299 -1 -335 -10z m481 -361 c4 -9 7 -39 8 -68 l1 -52
-180 0 -180 0 3 49 c6 88 1 86 183 86 133 0 161 -2 165 -15z"/>
<path d="M15185 3653 c-38 -21 -127 -86 -141 -104 -7 -8 -14 -65 -16 -126 l-4
-113 282 0 c156 0 285 -4 288 -9 3 -5 9 -40 12 -79 l7 -70 -224 -4 c-200 -4
-230 -7 -279 -26 -75 -29 -132 -73 -169 -129 -47 -71 -56 -113 -56 -268 0
-133 1 -143 29 -202 55 -120 148 -178 321 -203 39 -5 231 -10 428 -10 l357 0
0 523 c0 403 -3 533 -14 572 -36 138 -113 210 -263 249 -89 23 -515 22 -558
-1z m419 -883 c-3 -100 9 -90 -106 -89 -57 0 -125 4 -153 7 l-50 7 -3 49 c-5
80 -12 77 160 74 l153 -3 -1 -45z"/>
<path d="M17490 3168 c0 -277 -2 -579 -3 -671 -1 -92 0 -172 3 -178 4 -6 86
-8 211 -7 l204 3 3 498 2 497 173 -2 172 -3 3 -497 2 -498 188 0 c103 0 197 3
210 6 l22 6 0 502 c0 541 -2 561 -54 664 -44 85 -115 137 -231 167 -49 12
-134 15 -482 15 l-423 0 0 -502z"/>
<path d="M3477 1860 c-8 -12 -140 -142 -293 -289 l-278 -269 -155 150 c-86 83
-177 168 -203 190 l-47 39 5 -53 c3 -29 8 -173 12 -321 l7 -267 176 -173 c96
-94 255 -249 351 -344 l176 -172 94 97 c254 263 449 463 508 519 61 59 63 63
35 58 -16 -2 -165 -7 -330 -9 l-300 -5 92 85 c50 46 108 106 127 132 l35 48 3
302 c2 166 2 302 1 302 -1 0 -8 -9 -16 -20z"/>
</g>
</svg>
