<?xml version="1.0" standalone="no"?>
<!DOCTYPE svg PUBLIC "-//W3C//DTD SVG 20010904//EN"
 "http://www.w3.org/TR/2001/REC-SVG-20010904/DTD/svg10.dtd">
<svg version="1.0" xmlns="http://www.w3.org/2000/svg"
 width="4752.000000pt" height="4864.000000pt" viewBox="0 0 4752.000000 4864.000000"
 preserveAspectRatio="xMidYMid meet">

<g transform="translate(0.000000,4864.000000) scale(0.100000,-0.100000)"
fill="#000000" stroke="none">
<path d="M23236 47018 c-34 -35 -257 -265 -496 -513 -239 -247 -627 -646 -861
-885 -444 -454 -1163 -1193 -1328 -1365 -53 -55 -188 -197 -301 -315 -222
-233 -393 -410 -620 -643 -80 -82 -149 -155 -155 -161 -30 -35 -705 -726
-1401 -1436 -425 -433 -432 -441 -499 -563 -76 -138 -100 -209 -126 -369 -20
-117 -21 -184 -29 -1378 -5 -690 -9 -1671 -9 -2180 l-1 -924 31 -98 c17 -56
36 -98 43 -98 7 0 35 27 61 60 27 33 359 367 739 742 380 376 851 841 1046
1033 195 193 497 490 670 661 173 170 443 435 600 590 157 155 375 368 485
475 186 181 426 416 960 940 121 118 245 239 275 268 197 188 788 784 817 824
19 26 38 47 41 47 4 0 22 -27 41 -60 20 -34 71 -95 120 -142 47 -45 309 -303
581 -573 273 -269 671 -663 885 -874 215 -211 561 -553 770 -759 627 -620
1191 -1176 2125 -2096 595 -587 1260 -1250 1260 -1258 0 -5 7 -8 16 -8 11 0
14 5 9 18 -16 38 -17 543 -5 1722 20 1855 19 2485 -3 2695 -34 322 -66 433
-207 720 -87 179 -89 181 -245 365 -86 102 -297 327 -468 500 -171 173 -466
473 -657 665 -757 767 -1034 1048 -1445 1470 -237 242 -698 708 -1025 1035
-328 327 -629 633 -670 679 -41 47 -82 92 -90 101 -36 39 -250 289 -375 440
-146 175 -173 212 -216 300 -15 30 -64 100 -108 155 -45 56 -94 132 -113 172
-18 40 -39 75 -47 78 -8 3 -38 -19 -75 -57z"/>
<path d="M34795 38315 c-44 -46 -213 -218 -375 -382 -163 -164 -480 -487 -705
-718 -226 -231 -538 -550 -695 -710 -568 -577 -788 -801 -859 -875 -171 -176
-837 -852 -1696 -1720 -1083 -1095 -2038 -2063 -2220 -2250 -679 -697 -950
-970 -966 -970 -9 0 -103 97 -199 205 -29 33 -130 139 -224 235 -182 185 -270
282 -407 446 -46 55 -129 151 -183 213 -55 62 -122 144 -150 181 -28 37 -94
119 -147 181 -53 63 -114 143 -135 179 -20 36 -51 85 -68 110 -107 156 -180
310 -264 555 -69 202 -128 508 -143 735 -5 80 -13 219 -19 310 -12 193 -30
304 -59 363 -47 97 -178 251 -322 382 -79 72 -200 184 -269 250 -69 66 -188
179 -265 249 -77 71 -176 164 -220 206 -44 42 -165 153 -270 246 -104 93 -322
295 -485 449 -162 154 -340 322 -395 374 -55 52 -145 138 -200 191 -55 53
-143 134 -195 180 -104 90 -185 163 -415 371 -131 118 -317 259 -343 259 -10
0 -63 -88 -94 -155 l-23 -50 -3 -2085 c-4 -2175 1 -2494 38 -2819 25 -224 50
-343 110 -536 18 -55 42 -134 55 -175 45 -148 143 -404 205 -540 77 -166 211
-422 265 -505 69 -108 169 -243 289 -395 99 -124 123 -152 350 -410 130 -147
1026 -1047 5123 -5149 2306 -2309 3198 -3192 3828 -3791 201 -191 401 -386
1060 -1036 994 -979 1060 -1043 1200 -1149 50 -38 176 -137 280 -220 184 -146
329 -253 446 -328 49 -31 448 -262 504 -291 11 -6 55 -33 98 -60 46 -29 110
-58 157 -72 44 -12 84 -25 88 -28 5 -3 44 -12 87 -21 42 -9 107 -27 144 -40
114 -40 322 -94 441 -114 63 -11 270 -36 460 -57 l345 -36 150 17 c83 9 236
25 340 35 298 29 372 43 615 120 153 48 281 84 433 121 84 21 150 51 236 108
31 21 173 98 316 171 142 72 280 146 305 163 83 57 404 299 491 371 47 39 135
110 195 157 171 135 497 451 1507 1458 516 515 1231 1229 1590 1586 571 569
861 865 1162 1184 44 47 114 121 156 165 42 45 122 133 179 196 57 63 245 259
419 436 259 264 325 325 369 345 28 13 52 27 52 31 0 4 -14 15 -32 24 -17 9
-107 91 -198 183 -361 361 -1547 1559 -1755 1771 -290 298 -733 748 -1079
1100 -331 336 -1217 1238 -1231 1254 -25 29 -592 603 -1481 1501 -533 539
-987 998 -1008 1020 -20 22 -292 297 -604 610 -668 672 -1171 1182 -1667 1689
-198 203 -485 494 -637 647 -153 154 -278 283 -278 289 0 13 160 174 435 436
225 215 441 425 800 775 99 97 240 232 312 300 121 113 151 149 123 149 -27 0
-320 267 -1050 959 -205 194 -360 337 -490 451 -121 106 -166 147 -440 405
-364 343 -474 448 -592 567 -59 59 -111 108 -115 108 -5 0 -44 -38 -88 -85z
m-1433 -7041 c428 -424 1092 -1066 1613 -1558 99 -94 243 -231 320 -306 77
-74 250 -238 385 -365 301 -282 441 -417 775 -745 143 -140 323 -316 400 -390
77 -75 210 -203 295 -285 85 -83 193 -187 240 -231 47 -44 191 -181 320 -305
129 -123 269 -256 310 -294 211 -199 698 -663 875 -835 110 -107 268 -260 350
-339 83 -79 294 -284 470 -455 698 -679 991 -953 1053 -985 12 -6 22 -17 22
-23 0 -18 -488 -525 -620 -643 -41 -38 -140 -129 -220 -204 -80 -75 -238 -221
-350 -326 -113 -104 -270 -254 -350 -331 -80 -78 -179 -172 -222 -210 -254
-229 -421 -384 -636 -592 -335 -324 -513 -484 -609 -548 -110 -74 -274 -148
-378 -169 l-84 -18 -108 28 c-194 51 -340 140 -556 343 -61 58 -330 322 -597
586 -267 265 -946 938 -1509 1496 -564 558 -1472 1464 -2020 2014 -548 549
-1315 1318 -1705 1707 l-708 709 -105 52 c-57 28 -107 56 -109 60 -3 5 15 33
41 63 47 56 384 412 575 610 58 61 156 162 216 225 199 209 650 675 934 965
119 121 292 299 386 395 396 408 561 577 760 780 116 118 235 241 264 273 30
32 59 56 67 55 7 -2 104 -93 215 -204z"/>
<path d="M9255 30489 c-266 -26 -409 -54 -669 -133 -213 -65 -318 -103 -461
-164 -224 -96 -284 -129 -430 -235 -44 -31 -120 -84 -170 -116 -49 -32 -133
-96 -185 -143 -52 -46 -131 -111 -175 -143 -44 -32 -98 -75 -120 -94 -22 -19
-1061 -1052 -2310 -2296 -1248 -1243 -2337 -2325 -2420 -2405 -82 -80 -204
-196 -270 -260 -219 -209 -431 -424 -463 -469 -40 -55 -40 -81 -3 -134 33 -47
206 -219 416 -412 77 -71 178 -166 225 -210 47 -45 121 -115 165 -156 44 -40
136 -128 205 -194 365 -351 705 -678 955 -920 154 -148 290 -280 302 -292 12
-12 93 -88 180 -170 87 -81 248 -233 358 -338 110 -104 256 -242 325 -305 158
-146 298 -278 475 -450 77 -74 280 -270 450 -435 171 -165 346 -334 390 -375
44 -41 148 -141 230 -221 177 -173 355 -342 445 -424 36 -33 112 -105 170
-160 107 -103 373 -352 490 -460 35 -33 213 -204 395 -380 678 -657 1191
-1148 1450 -1390 88 -82 203 -190 255 -240 52 -49 138 -130 190 -180 157 -148
496 -471 640 -610 555 -536 725 -700 793 -765 42 -40 77 -80 77 -88 0 -7 -67
-84 -148 -170 -82 -87 -222 -238 -312 -337 -160 -176 -360 -389 -590 -630 -64
-66 -149 -156 -190 -200 -41 -44 -113 -120 -160 -170 -47 -49 -171 -184 -275
-300 -104 -115 -255 -276 -334 -357 l-145 -148 116 -117 c90 -92 2437 -2437
2453 -2451 2 -2 48 42 102 98 54 57 184 189 288 295 464 468 986 996 1290
1305 182 184 593 601 915 925 322 325 749 757 950 960 1658 1678 2564 2591
5101 5140 525 528 1236 1242 1579 1587 343 345 631 639 639 653 9 14 22 25 30
25 8 0 211 -195 450 -433 780 -774 1497 -1482 2736 -2702 369 -363 725 -714
791 -780 142 -140 588 -581 1099 -1085 443 -437 1057 -1045 2051 -2030 418
-415 1149 -1140 1624 -1610 810 -801 2003 -1984 2256 -2237 62 -62 116 -113
121 -113 5 0 27 18 48 41 102 105 414 370 605 514 36 26 121 101 190 166 69
65 173 155 231 201 217 170 354 284 482 401 73 66 218 189 322 273 176 142
246 202 511 436 55 47 157 128 228 180 71 51 131 98 133 103 4 14 -45 64 -612
620 -499 489 -882 866 -1580 1556 -203 201 -498 491 -655 645 -277 271 -660
648 -1180 1161 -140 138 -273 268 -295 289 -22 20 -240 236 -485 478 -1265
1253 -1658 1642 -2729 2696 -333 327 -963 950 -1400 1385 -939 932 -1293 1280
-1456 1435 -111 106 -240 233 -1085 1070 -164 162 -462 457 -662 655 -426 420
-1974 1952 -2321 2298 -131 130 -242 237 -247 237 -4 0 -47 -41 -96 -91 -49
-50 -156 -155 -239 -232 -82 -77 -188 -177 -235 -222 -171 -163 -432 -405
-686 -635 -142 -129 -297 -271 -344 -316 -47 -44 -125 -118 -175 -164 -49 -46
-187 -177 -305 -290 -334 -320 -672 -633 -722 -668 -46 -33 1 -87 162 -189 58
-36 182 -116 275 -178 94 -61 255 -165 359 -230 105 -65 223 -142 263 -170 51
-37 86 -55 118 -59 25 -4 45 -11 45 -15 0 -4 -35 -33 -79 -64 -88 -63 -329
-276 -496 -437 -60 -59 -126 -122 -145 -140 -19 -18 -102 -96 -185 -174 -553
-523 -555 -526 -800 -746 -155 -139 -335 -308 -784 -736 -167 -159 -338 -320
-380 -358 -42 -38 -168 -155 -281 -261 -113 -105 -250 -232 -305 -281 -179
-161 -589 -545 -900 -844 -186 -178 -295 -281 -415 -390 -57 -52 -165 -151
-240 -221 -74 -69 -187 -172 -250 -228 -63 -57 -156 -143 -205 -190 -50 -47
-182 -174 -295 -281 -113 -107 -269 -257 -347 -333 -165 -161 -132 -159 -281
-16 -53 52 -174 166 -267 254 -93 88 -219 208 -280 266 -60 58 -256 244 -435
414 -179 169 -419 401 -535 515 -115 113 -336 327 -490 475 -311 299 -483 465
-780 756 -184 180 -304 295 -900 863 -115 110 -271 259 -345 331 -74 72 -173
166 -220 210 -126 118 -301 286 -520 500 -108 104 -270 262 -360 349 -91 88
-280 272 -420 410 -634 622 -626 614 -1052 1010 -71 65 -128 125 -128 132 0
18 371 386 716 709 37 35 331 322 579 565 194 190 733 715 955 930 25 25 107
104 181 176 158 153 205 189 359 274 63 35 133 76 154 92 22 15 43 25 47 21 4
-5 14 -39 24 -78 9 -38 33 -119 53 -180 l37 -110 0 -1895 c0 -1042 -3 -1910
-7 -1928 -7 -30 6 -19 120 95 70 71 304 300 521 509 217 208 532 512 700 674
168 162 344 330 391 375 47 44 211 204 365 355 154 151 365 358 470 460 197
192 512 501 959 940 143 140 267 262 276 270 10 8 102 98 206 200 104 102 281
273 394 380 113 107 259 247 325 312 66 64 141 133 168 154 26 20 47 39 47 41
0 2 -26 28 -57 56 -65 58 -123 113 -503 472 -146 138 -328 308 -405 379 -77
71 -176 164 -220 205 -44 42 -188 177 -320 301 -132 124 -301 284 -375 355
-227 220 -340 318 -465 405 -66 46 -147 105 -180 130 -130 102 -356 239 -580
353 -285 144 -448 204 -900 328 -38 11 -90 26 -115 34 -92 29 -398 94 -495
104 -274 29 -895 40 -1110 20z"/>
<path d="M25225 13855 c-206 -207 -732 -714 -1105 -1065 -91 -85 -228 -216
-305 -290 -77 -75 -176 -169 -220 -210 -136 -127 -276 -261 -670 -645 -209
-203 -438 -426 -510 -496 -71 -69 -202 -195 -290 -280 -88 -86 -302 -290 -475
-454 -173 -164 -371 -353 -440 -419 -69 -67 -172 -166 -230 -220 -58 -55 -171
-165 -252 -244 l-148 -145 -187 179 c-103 99 -275 265 -382 369 -108 105 -257
249 -331 320 -74 72 -213 207 -310 300 -96 94 -281 269 -410 390 -129 121
-284 267 -345 325 -60 59 -180 171 -265 251 -224 208 -391 370 -680 656 -140
139 -257 250 -260 247 -6 -7 -3 -1252 9 -3329 8 -1456 8 -1471 30 -1565 35
-152 102 -305 183 -415 25 -33 129 -141 233 -240 104 -99 259 -248 344 -330
86 -83 183 -175 216 -205 156 -142 414 -388 780 -745 572 -557 943 -913 1440
-1380 672 -634 1520 -1459 2251 -2194 l362 -364 29 22 c37 30 166 156 343 338
79 81 257 263 395 403 137 140 365 374 505 520 395 411 485 505 775 805 370
384 487 505 505 525 8 9 125 129 260 266 650 661 820 835 1141 1164 190 195
415 427 500 515 84 88 269 276 409 419 140 142 260 264 265 270 6 7 34 38 64
69 30 31 51 60 47 64 -4 5 -1142 10 -2529 13 -1862 4 -2529 8 -2547 16 l-25
12 50 49 c28 26 86 75 130 107 115 86 199 160 375 331 218 213 329 317 535
500 220 195 299 273 396 390 142 171 229 304 369 565 94 176 119 237 145 340
12 52 33 131 45 175 47 168 60 257 72 511 13 276 5 621 -34 1474 -17 365 -22
663 -27 1505 l-6 1050 -220 -220z"/>
</g>
</svg>
